<mxfile host="Electron" modified="2023-10-02T17:45:52.342Z" agent="Mozilla/5.0 (X11; Linux x86_64) AppleWebKit/537.36 (KHTML, like Gecko) draw.io/22.0.0 Chrome/114.0.5735.289 Electron/25.8.3 Safari/537.36" etag="rgHNoL7ru8v5SQkkmpAk" version="22.0.0" type="device">
  <diagram name="Page-1" id="VNXcfkbYEXvpR4YsD0s-">
    <mxGraphModel dx="1059" dy="752" grid="1" gridSize="10" guides="1" tooltips="1" connect="1" arrows="1" fold="1" page="1" pageScale="1" pageWidth="827" pageHeight="1169" math="0" shadow="0">
      <root>
        <mxCell id="0" />
        <mxCell id="1" parent="0" />
        <mxCell id="Vn9umDjE4MvJT5pGu6KD-4" value="Visiteur" style="shape=umlLifeline;perimeter=lifelinePerimeter;whiteSpace=wrap;html=1;container=1;dropTarget=0;collapsible=0;recursiveResize=0;outlineConnect=0;portConstraint=eastwest;newEdgeStyle={&quot;curved&quot;:0,&quot;rounded&quot;:0};participant=umlActor;size=50;align=center;fontSize=14;" vertex="1" parent="1">
          <mxGeometry x="90" y="40" width="20" height="640" as="geometry" />
        </mxCell>
        <mxCell id="Vn9umDjE4MvJT5pGu6KD-47" value="" style="html=1;points=[[0,0,0,0,5],[0,1,0,0,-5],[1,0,0,0,5],[1,1,0,0,-5]];perimeter=orthogonalPerimeter;outlineConnect=0;targetShapes=umlLifeline;portConstraint=eastwest;newEdgeStyle={&quot;curved&quot;:0,&quot;rounded&quot;:0};labelBackgroundColor=none;fillColor=#ffe6cc;strokeColor=#d79b00;" vertex="1" parent="Vn9umDjE4MvJT5pGu6KD-4">
          <mxGeometry x="5" y="70" width="10" height="550" as="geometry" />
        </mxCell>
        <mxCell id="Vn9umDjE4MvJT5pGu6KD-5" value="Application" style="shape=umlLifeline;perimeter=lifelinePerimeter;whiteSpace=wrap;html=1;container=1;dropTarget=0;collapsible=0;recursiveResize=0;outlineConnect=0;portConstraint=eastwest;newEdgeStyle={&quot;curved&quot;:0,&quot;rounded&quot;:0};" vertex="1" parent="1">
          <mxGeometry x="348" y="40" width="100" height="640" as="geometry" />
        </mxCell>
        <mxCell id="Vn9umDjE4MvJT5pGu6KD-13" value="" style="html=1;points=[[0,0,0,0,5],[0,1,0,0,-5],[1,0,0,0,5],[1,1,0,0,-5]];perimeter=orthogonalPerimeter;outlineConnect=0;targetShapes=umlLifeline;portConstraint=eastwest;newEdgeStyle={&quot;curved&quot;:0,&quot;rounded&quot;:0};fillColor=#dae8fc;strokeColor=#6c8ebf;" vertex="1" parent="Vn9umDjE4MvJT5pGu6KD-5">
          <mxGeometry x="45" y="90" width="10" height="350" as="geometry" />
        </mxCell>
        <mxCell id="Vn9umDjE4MvJT5pGu6KD-14" value="requête fetch de la liste de photos des véhicules" style="html=1;align=left;spacingLeft=2;endArrow=block;rounded=0;edgeStyle=orthogonalEdgeStyle;curved=0;rounded=0;" edge="1" parent="Vn9umDjE4MvJT5pGu6KD-5">
          <mxGeometry x="-0.1842" y="9" relative="1" as="geometry">
            <mxPoint x="55" y="134" as="sourcePoint" />
            <Array as="points">
              <mxPoint x="83" y="134" />
              <mxPoint x="83" y="174" />
            </Array>
            <mxPoint x="55" y="174" as="targetPoint" />
            <mxPoint as="offset" />
          </mxGeometry>
        </mxCell>
        <mxCell id="Vn9umDjE4MvJT5pGu6KD-24" value="requête fetch de la liste des véhicules" style="html=1;align=left;spacingLeft=2;endArrow=block;rounded=0;edgeStyle=orthogonalEdgeStyle;curved=0;rounded=0;" edge="1" parent="Vn9umDjE4MvJT5pGu6KD-5">
          <mxGeometry x="-0.1842" y="9" relative="1" as="geometry">
            <mxPoint x="55" y="287" as="sourcePoint" />
            <Array as="points">
              <mxPoint x="79" y="287" />
              <mxPoint x="79" y="327" />
            </Array>
            <mxPoint x="55" y="327" as="targetPoint" />
            <mxPoint as="offset" />
          </mxGeometry>
        </mxCell>
        <mxCell id="Vn9umDjE4MvJT5pGu6KD-25" value="" style="html=1;points=[[0,0,0,0,5],[0,1,0,0,-5],[1,0,0,0,5],[1,1,0,0,-5]];perimeter=orthogonalPerimeter;outlineConnect=0;targetShapes=umlLifeline;portConstraint=eastwest;newEdgeStyle={&quot;curved&quot;:0,&quot;rounded&quot;:0};fillColor=#dae8fc;strokeColor=#6c8ebf;" vertex="1" parent="Vn9umDjE4MvJT5pGu6KD-5">
          <mxGeometry x="45" y="510" width="10" height="110" as="geometry" />
        </mxCell>
        <mxCell id="Vn9umDjE4MvJT5pGu6KD-27" value="filtrage des véhicules" style="html=1;align=left;spacingLeft=2;endArrow=block;rounded=0;edgeStyle=orthogonalEdgeStyle;curved=0;rounded=0;" edge="1" parent="Vn9umDjE4MvJT5pGu6KD-5" source="Vn9umDjE4MvJT5pGu6KD-25" target="Vn9umDjE4MvJT5pGu6KD-25">
          <mxGeometry x="-0.1842" y="9" relative="1" as="geometry">
            <mxPoint x="62" y="540" as="sourcePoint" />
            <Array as="points">
              <mxPoint x="77" y="540" />
              <mxPoint x="77" y="580" />
            </Array>
            <mxPoint x="62" y="580" as="targetPoint" />
            <mxPoint as="offset" />
          </mxGeometry>
        </mxCell>
        <mxCell id="Vn9umDjE4MvJT5pGu6KD-7" value="Database" style="shape=umlLifeline;perimeter=lifelinePerimeter;whiteSpace=wrap;html=1;container=1;dropTarget=0;collapsible=0;recursiveResize=0;outlineConnect=0;portConstraint=eastwest;newEdgeStyle={&quot;curved&quot;:0,&quot;rounded&quot;:0};" vertex="1" parent="1">
          <mxGeometry x="641" y="40" width="100" height="640" as="geometry" />
        </mxCell>
        <mxCell id="Vn9umDjE4MvJT5pGu6KD-17" value="" style="html=1;points=[[0,0,0,0,5],[0,1,0,0,-5],[1,0,0,0,5],[1,1,0,0,-5]];perimeter=orthogonalPerimeter;outlineConnect=0;targetShapes=umlLifeline;portConstraint=eastwest;newEdgeStyle={&quot;curved&quot;:0,&quot;rounded&quot;:0};fillColor=#e1d5e7;strokeColor=#9673a6;" vertex="1" parent="Vn9umDjE4MvJT5pGu6KD-7">
          <mxGeometry x="45" y="170" width="10" height="230" as="geometry" />
        </mxCell>
        <mxCell id="Vn9umDjE4MvJT5pGu6KD-8" value="Demande de la page des véhicules d&#39;occasion" style="html=1;verticalAlign=bottom;endArrow=block;curved=0;rounded=0;spacingLeft=0;horizontal=1;" edge="1" parent="1" source="Vn9umDjE4MvJT5pGu6KD-47">
          <mxGeometry width="80" relative="1" as="geometry">
            <mxPoint x="120" y="153" as="sourcePoint" />
            <mxPoint x="393" y="153" as="targetPoint" />
          </mxGeometry>
        </mxCell>
        <mxCell id="Vn9umDjE4MvJT5pGu6KD-16" value="demande de la liste des vehicules&amp;nbsp;" style="html=1;verticalAlign=bottom;endArrow=block;curved=0;rounded=0;" edge="1" parent="1">
          <mxGeometry width="80" relative="1" as="geometry">
            <mxPoint x="403" y="388" as="sourcePoint" />
            <mxPoint x="686" y="388" as="targetPoint" />
            <Array as="points">
              <mxPoint x="540" y="388" />
            </Array>
          </mxGeometry>
        </mxCell>
        <mxCell id="Vn9umDjE4MvJT5pGu6KD-18" value="retour de la liste des véhicules" style="html=1;verticalAlign=bottom;endArrow=open;dashed=1;endSize=8;curved=0;rounded=0;" edge="1" parent="1">
          <mxGeometry relative="1" as="geometry">
            <mxPoint x="686" y="421" as="sourcePoint" />
            <mxPoint x="403" y="421" as="targetPoint" />
          </mxGeometry>
        </mxCell>
        <mxCell id="Vn9umDjE4MvJT5pGu6KD-19" value="Affichage de la page des véhicules d&#39;occasion" style="html=1;verticalAlign=bottom;endArrow=open;dashed=1;endSize=8;curved=0;rounded=0;" edge="1" parent="1" target="Vn9umDjE4MvJT5pGu6KD-47">
          <mxGeometry relative="1" as="geometry">
            <mxPoint x="393" y="453" as="sourcePoint" />
            <mxPoint x="120" y="453" as="targetPoint" />
          </mxGeometry>
        </mxCell>
        <mxCell id="Vn9umDjE4MvJT5pGu6KD-21" value="demande de la liste des photos des vehicules&amp;nbsp;" style="html=1;verticalAlign=bottom;endArrow=block;curved=0;rounded=0;" edge="1" parent="1">
          <mxGeometry width="80" relative="1" as="geometry">
            <mxPoint x="403" y="250" as="sourcePoint" />
            <mxPoint x="686" y="250" as="targetPoint" />
            <Array as="points">
              <mxPoint x="537" y="250" />
            </Array>
          </mxGeometry>
        </mxCell>
        <mxCell id="Vn9umDjE4MvJT5pGu6KD-22" value="retour de la liste des photos des véhicules" style="html=1;verticalAlign=bottom;endArrow=open;dashed=1;endSize=8;curved=0;rounded=0;" edge="1" parent="1">
          <mxGeometry relative="1" as="geometry">
            <mxPoint x="686" y="288" as="sourcePoint" />
            <mxPoint x="403" y="288" as="targetPoint" />
          </mxGeometry>
        </mxCell>
        <mxCell id="Vn9umDjE4MvJT5pGu6KD-26" value="Demande de filtrage de la liste des véhicules" style="html=1;verticalAlign=bottom;endArrow=block;curved=0;rounded=0;" edge="1" parent="1">
          <mxGeometry width="80" relative="1" as="geometry">
            <mxPoint x="105" y="559" as="sourcePoint" />
            <mxPoint x="393" y="559" as="targetPoint" />
          </mxGeometry>
        </mxCell>
        <mxCell id="Vn9umDjE4MvJT5pGu6KD-28" value="Réaffichage de la liste des véhicules filtrés" style="html=1;verticalAlign=bottom;endArrow=open;dashed=1;endSize=8;curved=0;rounded=0;" edge="1" parent="1" target="Vn9umDjE4MvJT5pGu6KD-47">
          <mxGeometry relative="1" as="geometry">
            <mxPoint x="393.5" y="640" as="sourcePoint" />
            <mxPoint x="130" y="640" as="targetPoint" />
          </mxGeometry>
        </mxCell>
        <mxCell id="Vn9umDjE4MvJT5pGu6KD-29" value="Visiteur" style="shape=umlLifeline;perimeter=lifelinePerimeter;whiteSpace=wrap;html=1;container=1;dropTarget=0;collapsible=0;recursiveResize=0;outlineConnect=0;portConstraint=eastwest;newEdgeStyle={&quot;curved&quot;:0,&quot;rounded&quot;:0};participant=umlActor;size=50;align=center;fontSize=14;" vertex="1" parent="1">
          <mxGeometry x="90" y="720" width="20" height="410" as="geometry" />
        </mxCell>
        <mxCell id="Vn9umDjE4MvJT5pGu6KD-48" value="" style="html=1;points=[[0,0,0,0,5],[0,1,0,0,-5],[1,0,0,0,5],[1,1,0,0,-5]];perimeter=orthogonalPerimeter;outlineConnect=0;targetShapes=umlLifeline;portConstraint=eastwest;newEdgeStyle={&quot;curved&quot;:0,&quot;rounded&quot;:0};fillColor=#ffe6cc;strokeColor=#d79b00;" vertex="1" parent="Vn9umDjE4MvJT5pGu6KD-29">
          <mxGeometry x="5" y="70" width="10" height="320" as="geometry" />
        </mxCell>
        <mxCell id="Vn9umDjE4MvJT5pGu6KD-30" value="Application" style="shape=umlLifeline;perimeter=lifelinePerimeter;whiteSpace=wrap;html=1;container=1;dropTarget=0;collapsible=0;recursiveResize=0;outlineConnect=0;portConstraint=eastwest;newEdgeStyle={&quot;curved&quot;:0,&quot;rounded&quot;:0};" vertex="1" parent="1">
          <mxGeometry x="348" y="720" width="100" height="410" as="geometry" />
        </mxCell>
        <mxCell id="Vn9umDjE4MvJT5pGu6KD-31" value="" style="html=1;points=[[0,0,0,0,5],[0,1,0,0,-5],[1,0,0,0,5],[1,1,0,0,-5]];perimeter=orthogonalPerimeter;outlineConnect=0;targetShapes=umlLifeline;portConstraint=eastwest;newEdgeStyle={&quot;curved&quot;:0,&quot;rounded&quot;:0};fillColor=#dae8fc;strokeColor=#6c8ebf;" vertex="1" parent="Vn9umDjE4MvJT5pGu6KD-30">
          <mxGeometry x="45" y="90" width="10" height="300" as="geometry" />
        </mxCell>
        <mxCell id="Vn9umDjE4MvJT5pGu6KD-36" value="Database" style="shape=umlLifeline;perimeter=lifelinePerimeter;whiteSpace=wrap;html=1;container=1;dropTarget=0;collapsible=0;recursiveResize=0;outlineConnect=0;portConstraint=eastwest;newEdgeStyle={&quot;curved&quot;:0,&quot;rounded&quot;:0};" vertex="1" parent="1">
          <mxGeometry x="641" y="720" width="100" height="410" as="geometry" />
        </mxCell>
        <mxCell id="Vn9umDjE4MvJT5pGu6KD-37" value="" style="html=1;points=[[0,0,0,0,5],[0,1,0,0,-5],[1,0,0,0,5],[1,1,0,0,-5]];perimeter=orthogonalPerimeter;outlineConnect=0;targetShapes=umlLifeline;portConstraint=eastwest;newEdgeStyle={&quot;curved&quot;:0,&quot;rounded&quot;:0};fillColor=#e1d5e7;strokeColor=#9673a6;" vertex="1" parent="Vn9umDjE4MvJT5pGu6KD-36">
          <mxGeometry x="45" y="196" width="10" height="70" as="geometry" />
        </mxCell>
        <mxCell id="Vn9umDjE4MvJT5pGu6KD-38" value="Soumission d&#39;un formulaire de contact de véhicule" style="html=1;verticalAlign=bottom;endArrow=block;curved=0;rounded=0;" edge="1" parent="1" source="Vn9umDjE4MvJT5pGu6KD-48">
          <mxGeometry width="80" relative="1" as="geometry">
            <mxPoint x="110" y="830" as="sourcePoint" />
            <mxPoint x="393" y="830" as="targetPoint" />
          </mxGeometry>
        </mxCell>
        <mxCell id="Vn9umDjE4MvJT5pGu6KD-40" value="vérification du formulaire" style="html=1;align=left;spacingLeft=2;endArrow=block;rounded=0;edgeStyle=orthogonalEdgeStyle;curved=0;rounded=0;" edge="1" parent="1">
          <mxGeometry x="-0.1842" y="9" relative="1" as="geometry">
            <mxPoint x="403" y="840" as="sourcePoint" />
            <Array as="points">
              <mxPoint x="425" y="840" />
              <mxPoint x="425" y="880" />
            </Array>
            <mxPoint x="403" y="880" as="targetPoint" />
            <mxPoint as="offset" />
          </mxGeometry>
        </mxCell>
        <mxCell id="Vn9umDjE4MvJT5pGu6KD-41" value="envoi des données pour sauvegarde" style="html=1;verticalAlign=bottom;endArrow=block;curved=0;rounded=0;" edge="1" parent="1">
          <mxGeometry x="-0.1025" width="80" relative="1" as="geometry">
            <mxPoint x="403" y="935.55" as="sourcePoint" />
            <mxPoint x="686" y="935.55" as="targetPoint" />
            <mxPoint as="offset" />
          </mxGeometry>
        </mxCell>
        <mxCell id="Vn9umDjE4MvJT5pGu6KD-42" value="données valides" style="shape=umlFrame;whiteSpace=wrap;html=1;pointerEvents=0;" vertex="1" parent="1">
          <mxGeometry x="20" y="900" width="700" height="110" as="geometry" />
        </mxCell>
        <mxCell id="Vn9umDjE4MvJT5pGu6KD-43" value="données sauvegardées" style="html=1;verticalAlign=bottom;endArrow=open;dashed=1;endSize=8;curved=0;rounded=0;" edge="1" parent="1">
          <mxGeometry relative="1" as="geometry">
            <mxPoint x="686" y="967" as="sourcePoint" />
            <mxPoint x="403" y="967" as="targetPoint" />
          </mxGeometry>
        </mxCell>
        <mxCell id="Vn9umDjE4MvJT5pGu6KD-44" value="Actualisation de la page et affichage d&#39;un message de confirmation" style="html=1;verticalAlign=bottom;endArrow=open;dashed=1;endSize=8;curved=0;rounded=0;" edge="1" parent="1" target="Vn9umDjE4MvJT5pGu6KD-48">
          <mxGeometry x="-0.0934" relative="1" as="geometry">
            <mxPoint x="393" y="999" as="sourcePoint" />
            <mxPoint x="120" y="999" as="targetPoint" />
            <mxPoint as="offset" />
          </mxGeometry>
        </mxCell>
        <mxCell id="Vn9umDjE4MvJT5pGu6KD-45" value="données invalides" style="shape=umlFrame;whiteSpace=wrap;html=1;pointerEvents=0;" vertex="1" parent="1">
          <mxGeometry x="20" y="1030" width="700" height="70" as="geometry" />
        </mxCell>
        <mxCell id="Vn9umDjE4MvJT5pGu6KD-46" value="Actualisation de la page et affichage d&#39;un message d&#39;erreur" style="html=1;verticalAlign=bottom;endArrow=open;dashed=1;endSize=8;curved=0;rounded=0;" edge="1" parent="1" target="Vn9umDjE4MvJT5pGu6KD-48">
          <mxGeometry x="-0.1047" y="-3" relative="1" as="geometry">
            <mxPoint x="390" y="1068" as="sourcePoint" />
            <mxPoint x="130" y="1068" as="targetPoint" />
            <mxPoint as="offset" />
          </mxGeometry>
        </mxCell>
      </root>
    </mxGraphModel>
  </diagram>
</mxfile>
